# xmcd CD database file
#
# Track frame offsets:
#	150
#	22687
#	42862
#	65405
#
# Disc length: 1140 seconds
#
# Revision: 0
# Processed by: cddbd v1.5PL3 Copyright (c) Steve Scherf et al.
# Submitted via: CDex 1.50
#
DISCID=25047204
DTITLE=秋山久美 - PERSONA - Proceed
DYEAR=1996
DGENRE=Anime
TTITLE0=PERSONA
TTITLE1=Proceed
TTITLE2=PERSONA(ORIGINAL KARAOKE)
TTITLE3=Proceed(ORIGINAL KARAOKE)
EXTD=YEAR: 1996
EXTT0=
EXTT1=
EXTT2=
EXTT3=
PLAYORDER=
